# xmcd
#
# Track frame offsets:
# 150
# 15286
# 28625
# 44074
# 59273
# 81073
# 97663
# 113346
# 136472
# 149683
# 162985
# 178946
# 193137
# 209360
# 228285
# 240329
# 255089
# 270504
# 283411
# 296484
#
# Disc length: 4205 seconds
#
#
# Revision: 0
# Processed by: cddbd v1.5.2PL0 Copyright (c) Steve Scherf et al.
# Submitted via: FreeRIP 2.945 
#
DISCID=16106b14
DTITLE=Vários - Encontro de Violeiros
DYEAR=2007
DGENRE=Sertanejo
TTITLE0=Arreio de Prata
TTITLE1=Laço Justiceiro
TTITLE2=Gran-fino na Roça
TTITLE3=Sertão do Laranjinha
TTITLE4=Legítimo Doutor
TTITLE5=Mineirinho Não Faz Feio
TTITLE6=A Moça Que Dançou Com o Diabo
TTITLE7=Cinqüentão
TTITLE8=Peão de Ouro
TTITLE9=Alma do Ferreirinha
TTITLE10=Mestiça Arisca de Laço
TTITLE11=Um Pouco de Minha Vida
TTITLE12=Pombinha Branca
TTITLE13=Terra Roxa
TTITLE14=Mocinhas da Cidade
TTITLE15=Canoeiro
TTITLE16=Cabecinha no Ombro
TTITLE17=Castigo do Fazendeiro
TTITLE18=O Menino da Porteira
TTITLE19=Meu Martírio
EXTD=
EXTT0=
EXTT1=
EXTT2=
EXTT3=
EXTT4=
EXTT5=
EXTT6=
EXTT7=
EXTT8=
EXTT9=
EXTT10=
EXTT11=
EXTT12=
EXTT13=
EXTT14=
EXTT15=
EXTT16=
EXTT17=
EXTT18=
EXTT19=
PLAYORDER=
